<?xml version="1.0" encoding="UTF-8"?>
<svg id="Layer_1" data-name="Layer 1" xmlns="http://www.w3.org/2000/svg" viewBox="0 0 346.91 401.5">
  <defs>
    <style>
      .cls-1 {
        fill: none;
      }
    </style>
  </defs>
  <polygon points="260.39 150.82 289.22 200.75 346.67 101.25 260.39 150.81 260.39 150.82"/>
  <polygon points="173.46 200.75 260.39 150.82 260.39 150.81 260.06 150.25 231.77 101.25 173.46 101.25 173.46 200.75"/>
  <polygon class="cls-1" points="86.53 150.81 86.53 150.82 173.46 200.75 173.46 101.25 115.15 101.25 86.86 150.25 86.53 150.81"/>
  <polygon class="cls-1" points="173.46 200.75 260.39 250.68 289.22 200.75 260.39 150.82 173.46 200.75"/>
  <polygon class="cls-1" points="173.46 200.75 86.53 250.68 86.53 250.69 86.86 251.25 115.15 300.25 173.46 300.25 173.46 200.75"/>
  <polygon class="cls-1" points="260.39 250.68 260.39 250.69 346.67 300.25 289.22 200.75 260.39 250.68"/>
  <polygon points="260.06 251.25 231.77 300.25 346.67 300.25 260.39 250.69 260.06 251.25"/>
  <polygon class="cls-1" points="86.53 250.69 .25 300.25 115.15 300.25 86.86 251.25 86.53 250.69"/>
  <polygon points="86.53 250.68 57.7 200.75 .25 300.25 86.53 250.69 86.53 250.68"/>
  <polygon points="260.39 250.69 260.39 250.68 173.46 200.75 173.46 300.25 231.77 300.25 260.06 251.25 260.39 250.69"/>
  <polygon points="173.46 200.75 86.53 150.82 57.7 200.75 86.53 250.68 173.46 200.75"/>
  <polygon points="86.86 150.25 115.15 101.25 .25 101.25 86.53 150.81 86.86 150.25"/>
  <polygon points="231.77 101.25 173.46 .25 173.46 101.25 231.77 101.25"/>
  <polygon points="115.15 300.25 173.46 401.25 173.46 300.25 115.15 300.25"/>
  <polygon class="cls-1" points="173.46 .25 115.15 101.25 173.46 101.25 173.46 .25"/>
</svg>
